<mxfile host="app.diagrams.net" modified="2023-12-12T21:13:00.727Z" agent="Mozilla/5.0 (Windows NT 10.0; Win64; x64; rv:109.0) Gecko/20100101 Firefox/119.0" etag="XIuiGUPBpGTDcBPXqTP2" version="22.1.8" type="github">
  <diagram name="Page-1" id="1MV46rAHlPbw8p71Xk87">
    <mxGraphModel dx="830" dy="454" grid="1" gridSize="10" guides="1" tooltips="1" connect="1" arrows="1" fold="1" page="1" pageScale="1" pageWidth="827" pageHeight="1169" math="0" shadow="0">
      <root>
        <mxCell id="0" />
        <mxCell id="1" parent="0" />
        <mxCell id="3J5tfXGXhsEAmWYhqfvo-39" value="" style="ellipse;whiteSpace=wrap;html=1;aspect=fixed;" vertex="1" parent="1">
          <mxGeometry x="374" y="450" width="80" height="80" as="geometry" />
        </mxCell>
        <mxCell id="-r5W60An7yHclekTi8GZ-2" value="" style="rounded=0;whiteSpace=wrap;html=1;" parent="1" vertex="1">
          <mxGeometry x="364" y="340" width="100" height="100" as="geometry" />
        </mxCell>
        <mxCell id="-r5W60An7yHclekTi8GZ-1" value="Drawers" style="ellipse;whiteSpace=wrap;html=1;aspect=fixed;" parent="1" vertex="1">
          <mxGeometry x="374" y="350" width="80" height="80" as="geometry" />
        </mxCell>
        <mxCell id="-r5W60An7yHclekTi8GZ-3" value="Drawers-sequence" style="text;html=1;strokeColor=none;fillColor=none;align=center;verticalAlign=middle;whiteSpace=wrap;rounded=0;" parent="1" vertex="1">
          <mxGeometry x="384" y="310" width="60" height="30" as="geometry" />
        </mxCell>
        <mxCell id="3J5tfXGXhsEAmWYhqfvo-1" value="&lt;div&gt;Filing&lt;/div&gt;&lt;div&gt;Cabinet&lt;br&gt;&lt;/div&gt;" style="ellipse;whiteSpace=wrap;html=1;aspect=fixed;" vertex="1" parent="1">
          <mxGeometry x="100" y="350" width="80" height="80" as="geometry" />
        </mxCell>
        <mxCell id="3J5tfXGXhsEAmWYhqfvo-2" value="" style="shape=process;whiteSpace=wrap;html=1;backgroundOutline=1;size=0.5;" vertex="1" parent="1">
          <mxGeometry x="230" y="380" width="70" height="20" as="geometry" />
        </mxCell>
        <mxCell id="3J5tfXGXhsEAmWYhqfvo-5" value="" style="endArrow=none;html=1;rounded=0;exitX=1;exitY=0.5;exitDx=0;exitDy=0;entryX=0;entryY=0.5;entryDx=0;entryDy=0;edgeStyle=orthogonalEdgeStyle;strokeColor=default;startArrow=oval;startFill=1;" edge="1" parent="1" source="3J5tfXGXhsEAmWYhqfvo-1" target="3J5tfXGXhsEAmWYhqfvo-2">
          <mxGeometry width="50" height="50" relative="1" as="geometry">
            <mxPoint x="560" y="350" as="sourcePoint" />
            <mxPoint x="610" y="300" as="targetPoint" />
          </mxGeometry>
        </mxCell>
        <mxCell id="3J5tfXGXhsEAmWYhqfvo-7" value="" style="endArrow=none;html=1;rounded=0;edgeStyle=orthogonalEdgeStyle;entryX=0.84;entryY=-0.042;entryDx=0;entryDy=0;startArrow=oval;startFill=1;entryPerimeter=0;exitX=0.003;exitY=0.489;exitDx=0;exitDy=0;bendable=0;movable=1;noJump=0;flowAnimation=0;ignoreEdge=0;orthogonalLoop=0;orthogonal=0;enumerate=0;comic=0;exitPerimeter=0;" edge="1" parent="1" source="-r5W60An7yHclekTi8GZ-2" target="3J5tfXGXhsEAmWYhqfvo-9">
          <mxGeometry width="50" height="50" relative="1" as="geometry">
            <mxPoint x="360" y="390" as="sourcePoint" />
            <mxPoint x="360" y="390" as="targetPoint" />
          </mxGeometry>
        </mxCell>
        <mxCell id="3J5tfXGXhsEAmWYhqfvo-8" value="Has" style="text;html=1;strokeColor=none;fillColor=none;align=center;verticalAlign=middle;whiteSpace=wrap;rounded=0;" vertex="1" parent="1">
          <mxGeometry x="220" y="390" width="60" height="30" as="geometry" />
        </mxCell>
        <mxCell id="3J5tfXGXhsEAmWYhqfvo-9" value="Of" style="text;html=1;strokeColor=none;fillColor=none;align=center;verticalAlign=middle;whiteSpace=wrap;rounded=0;" vertex="1" parent="1">
          <mxGeometry x="250" y="390" width="60" height="30" as="geometry" />
        </mxCell>
        <mxCell id="3J5tfXGXhsEAmWYhqfvo-10" value="" style="endArrow=classic;startArrow=classic;html=1;rounded=0;edgeStyle=orthogonalEdgeStyle;" edge="1" parent="1">
          <mxGeometry width="50" height="50" relative="1" as="geometry">
            <mxPoint x="230" y="370" as="sourcePoint" />
            <mxPoint x="260" y="370" as="targetPoint" />
          </mxGeometry>
        </mxCell>
        <mxCell id="3J5tfXGXhsEAmWYhqfvo-11" value="" style="endArrow=classic;startArrow=classic;html=1;rounded=0;edgeStyle=orthogonalEdgeStyle;" edge="1" parent="1">
          <mxGeometry width="50" height="50" relative="1" as="geometry">
            <mxPoint x="270" y="370" as="sourcePoint" />
            <mxPoint x="300" y="370" as="targetPoint" />
          </mxGeometry>
        </mxCell>
        <mxCell id="3J5tfXGXhsEAmWYhqfvo-19" value="" style="shape=process;whiteSpace=wrap;html=1;backgroundOutline=1;size=0.5;" vertex="1" parent="1">
          <mxGeometry x="388" y="470" width="51" height="20" as="geometry" />
        </mxCell>
        <mxCell id="3J5tfXGXhsEAmWYhqfvo-20" value="DrS" style="text;html=1;strokeColor=none;fillColor=none;align=center;verticalAlign=middle;whiteSpace=wrap;rounded=0;" vertex="1" parent="1">
          <mxGeometry x="346" y="480" width="16" height="15" as="geometry" />
        </mxCell>
        <mxCell id="3J5tfXGXhsEAmWYhqfvo-21" value="&lt;font style=&quot;font-size: 16px;&quot;&gt;&lt;dfn class=&quot;glossary&quot;&gt;∈&lt;/dfn&gt;&lt;/font&gt;" style="text;whiteSpace=wrap;html=1;" vertex="1" parent="1">
          <mxGeometry x="332" y="460" width="40" height="40" as="geometry" />
        </mxCell>
        <mxCell id="3J5tfXGXhsEAmWYhqfvo-22" value="e" style="text;html=1;strokeColor=none;fillColor=none;align=center;verticalAlign=middle;whiteSpace=wrap;rounded=0;" vertex="1" parent="1">
          <mxGeometry x="324" y="450" width="60" height="30" as="geometry" />
        </mxCell>
        <mxCell id="3J5tfXGXhsEAmWYhqfvo-26" value="DrS" style="text;html=1;strokeColor=none;fillColor=none;align=center;verticalAlign=middle;whiteSpace=wrap;rounded=0;" vertex="1" parent="1">
          <mxGeometry x="408" y="510" width="16" height="15" as="geometry" />
        </mxCell>
        <mxCell id="3J5tfXGXhsEAmWYhqfvo-27" value="&lt;font style=&quot;font-size: 16px;&quot;&gt;&lt;dfn class=&quot;glossary&quot;&gt;∈&lt;/dfn&gt;&lt;/font&gt;" style="text;whiteSpace=wrap;html=1;" vertex="1" parent="1">
          <mxGeometry x="394" y="490" width="40" height="40" as="geometry" />
        </mxCell>
        <mxCell id="3J5tfXGXhsEAmWYhqfvo-28" value="DrS" style="text;html=1;strokeColor=none;fillColor=none;align=center;verticalAlign=middle;whiteSpace=wrap;rounded=0;" vertex="1" parent="1">
          <mxGeometry x="468" y="480" width="16" height="15" as="geometry" />
        </mxCell>
        <mxCell id="3J5tfXGXhsEAmWYhqfvo-29" value="&lt;font style=&quot;font-size: 16px;&quot;&gt;&lt;dfn class=&quot;glossary&quot;&gt;∈&lt;/dfn&gt;&lt;/font&gt;" style="text;whiteSpace=wrap;html=1;" vertex="1" parent="1">
          <mxGeometry x="454" y="460" width="40" height="40" as="geometry" />
        </mxCell>
        <mxCell id="3J5tfXGXhsEAmWYhqfvo-30" value="s" style="text;html=1;strokeColor=none;fillColor=none;align=center;verticalAlign=middle;whiteSpace=wrap;rounded=0;allowArrows=0;connectable=0;" vertex="1" parent="1">
          <mxGeometry x="444" y="450" width="60" height="30" as="geometry" />
        </mxCell>
        <mxCell id="3J5tfXGXhsEAmWYhqfvo-31" value="" style="endArrow=none;html=1;rounded=0;exitX=0.656;exitY=1;exitDx=0;exitDy=0;entryX=0.825;entryY=0;entryDx=0;entryDy=0;edgeStyle=orthogonalEdgeStyle;strokeColor=default;startArrow=oval;startFill=1;exitPerimeter=0;entryPerimeter=0;" edge="1" parent="1" source="-r5W60An7yHclekTi8GZ-2" target="3J5tfXGXhsEAmWYhqfvo-19">
          <mxGeometry width="50" height="50" relative="1" as="geometry">
            <mxPoint x="190" y="400" as="sourcePoint" />
            <mxPoint x="240" y="400" as="targetPoint" />
          </mxGeometry>
        </mxCell>
        <mxCell id="3J5tfXGXhsEAmWYhqfvo-32" value="" style="endArrow=none;html=1;rounded=0;edgeStyle=orthogonalEdgeStyle;exitX=0.25;exitY=0;exitDx=0;exitDy=0;entryX=0.338;entryY=0.982;entryDx=0;entryDy=0;entryPerimeter=0;" edge="1" parent="1" source="3J5tfXGXhsEAmWYhqfvo-19" target="-r5W60An7yHclekTi8GZ-1">
          <mxGeometry width="50" height="50" relative="1" as="geometry">
            <mxPoint x="460" y="450" as="sourcePoint" />
            <mxPoint x="510" y="400" as="targetPoint" />
          </mxGeometry>
        </mxCell>
        <mxCell id="3J5tfXGXhsEAmWYhqfvo-33" value="" style="endArrow=classic;startArrow=classic;html=1;rounded=0;strokeColor=#FFFFFF;shadow=0;strokeWidth=1;" edge="1" parent="1">
          <mxGeometry width="50" height="50" relative="1" as="geometry">
            <mxPoint x="388" y="464.83" as="sourcePoint" />
            <mxPoint x="440" y="465" as="targetPoint" />
          </mxGeometry>
        </mxCell>
        <mxCell id="3J5tfXGXhsEAmWYhqfvo-41" value="" style="shape=process;whiteSpace=wrap;html=1;backgroundOutline=1;size=0.5;rotation=-90;" vertex="1" parent="1">
          <mxGeometry x="388" y="585" width="51" height="20" as="geometry" />
        </mxCell>
        <mxCell id="3J5tfXGXhsEAmWYhqfvo-42" value="" style="endArrow=oval;html=1;rounded=0;entryX=0.5;entryY=1;entryDx=0;entryDy=0;exitX=1;exitY=0.5;exitDx=0;exitDy=0;startArrow=none;startFill=0;endFill=1;" edge="1" parent="1" source="3J5tfXGXhsEAmWYhqfvo-41" target="3J5tfXGXhsEAmWYhqfvo-27">
          <mxGeometry width="50" height="50" relative="1" as="geometry">
            <mxPoint x="360" y="600" as="sourcePoint" />
            <mxPoint x="410" y="550" as="targetPoint" />
          </mxGeometry>
        </mxCell>
        <mxCell id="3J5tfXGXhsEAmWYhqfvo-43" value="(I)" style="ellipse;whiteSpace=wrap;html=1;aspect=fixed;" vertex="1" parent="1">
          <mxGeometry x="392" y="650" width="44" height="44" as="geometry" />
        </mxCell>
        <mxCell id="3J5tfXGXhsEAmWYhqfvo-44" value="" style="endArrow=oval;html=1;rounded=0;entryX=0.5;entryY=0;entryDx=0;entryDy=0;exitX=0;exitY=0.5;exitDx=0;exitDy=0;startArrow=none;startFill=0;endFill=1;" edge="1" parent="1" source="3J5tfXGXhsEAmWYhqfvo-41" target="3J5tfXGXhsEAmWYhqfvo-43">
          <mxGeometry width="50" height="50" relative="1" as="geometry">
            <mxPoint x="424" y="580" as="sourcePoint" />
            <mxPoint x="424" y="540" as="targetPoint" />
          </mxGeometry>
        </mxCell>
        <mxCell id="3J5tfXGXhsEAmWYhqfvo-45" value="DrS" style="text;html=1;strokeColor=none;fillColor=none;align=center;verticalAlign=middle;whiteSpace=wrap;rounded=0;" vertex="1" parent="1">
          <mxGeometry x="372" y="580" width="16" height="15" as="geometry" />
        </mxCell>
        <mxCell id="3J5tfXGXhsEAmWYhqfvo-46" value="&lt;dfn&gt;@&lt;/dfn&gt;" style="text;whiteSpace=wrap;html=1;" vertex="1" parent="1">
          <mxGeometry x="358" y="560" width="40" height="40" as="geometry" />
        </mxCell>
        <mxCell id="3J5tfXGXhsEAmWYhqfvo-47" value="s" style="text;html=1;strokeColor=none;fillColor=none;align=center;verticalAlign=middle;whiteSpace=wrap;rounded=0;allowArrows=0;connectable=0;" vertex="1" parent="1">
          <mxGeometry x="348" y="550" width="60" height="30" as="geometry" />
        </mxCell>
        <mxCell id="3J5tfXGXhsEAmWYhqfvo-51" value="DrS" style="text;html=1;strokeColor=none;fillColor=none;align=center;verticalAlign=middle;whiteSpace=wrap;rounded=0;" vertex="1" parent="1">
          <mxGeometry x="372" y="610" width="16" height="15" as="geometry" />
        </mxCell>
        <mxCell id="3J5tfXGXhsEAmWYhqfvo-52" value="&lt;dfn&gt;@&lt;/dfn&gt;" style="text;whiteSpace=wrap;html=1;" vertex="1" parent="1">
          <mxGeometry x="358" y="590" width="40" height="40" as="geometry" />
        </mxCell>
        <mxCell id="3J5tfXGXhsEAmWYhqfvo-53" value="i" style="text;html=1;strokeColor=none;fillColor=none;align=center;verticalAlign=middle;whiteSpace=wrap;rounded=0;allowArrows=0;connectable=0;" vertex="1" parent="1">
          <mxGeometry x="348" y="585" width="60" height="30" as="geometry" />
        </mxCell>
        <mxCell id="3J5tfXGXhsEAmWYhqfvo-54" value="DrS" style="text;html=1;strokeColor=none;fillColor=none;align=center;verticalAlign=middle;whiteSpace=wrap;rounded=0;" vertex="1" parent="1">
          <mxGeometry x="450" y="585" width="16" height="25" as="geometry" />
        </mxCell>
        <mxCell id="3J5tfXGXhsEAmWYhqfvo-55" value="&lt;dfn&gt;@&lt;/dfn&gt;" style="text;whiteSpace=wrap;html=1;" vertex="1" parent="1">
          <mxGeometry x="436" y="575" width="40" height="40" as="geometry" />
        </mxCell>
        <mxCell id="3J5tfXGXhsEAmWYhqfvo-57" value="" style="endArrow=classic;startArrow=classic;html=1;rounded=0;strokeColor=#FFFFFF;shadow=0;strokeWidth=1;" edge="1" parent="1">
          <mxGeometry width="50" height="50" relative="1" as="geometry">
            <mxPoint x="430" y="570" as="sourcePoint" />
            <mxPoint x="430" y="620" as="targetPoint" />
          </mxGeometry>
        </mxCell>
      </root>
    </mxGraphModel>
  </diagram>
</mxfile>
